<svg xmlns="http://www.w3.org/2000/svg" xmlns:xlink="http://www.w3.org/1999/xlink" width="2560" zoomAndPan="magnify" viewBox="0 0 1920 1919.999921" height="2560" preserveAspectRatio="xMidYMid meet" version="1.0"><defs><g/><clipPath id="5bc790f4cd"><path d="M 135.460938 1658 L 678 1658 L 678 1659.878906 L 135.460938 1659.878906 Z M 135.460938 1658 " clip-rule="nonzero"/></clipPath></defs><g fill="#000000" fill-opacity="1"><g transform="translate(900.073213, 1042.874914)"><g><path d="M 59.765625 48.90625 C 40.753906 48.90625 26.71875 46.117188 17.65625 40.546875 C 8.601562 34.972656 4.078125 27.203125 4.078125 17.234375 C 4.078125 11.179688 6.007812 6.21875 9.875 2.34375 C 13.738281 -1.519531 19.296875 -4.113281 26.546875 -5.4375 L 26.546875 -7.625 C 22.640625 -10 19.832031 -12.628906 18.125 -15.515625 C 16.414062 -18.410156 15.5625 -21.769531 15.5625 -25.59375 C 15.5625 -34.863281 21.585938 -41.101562 33.640625 -44.3125 L 33.640625 -46.5 C 27.441406 -50.050781 22.773438 -54.457031 19.640625 -59.71875 C 16.503906 -64.976562 14.9375 -71.332031 14.9375 -78.78125 C 14.9375 -86.445312 16.695312 -93.1875 20.21875 -99 C 23.738281 -104.820312 28.894531 -109.351562 35.6875 -112.59375 C 42.476562 -115.832031 50.609375 -117.453125 60.078125 -117.453125 C 69.691406 -117.453125 77.359375 -115.78125 83.078125 -112.4375 C 86.628906 -117.59375 88.679688 -123.546875 89.234375 -130.296875 L 91.4375 -131.65625 L 112.21875 -126.546875 C 111.59375 -121.035156 109.988281 -116.414062 107.40625 -112.6875 C 104.832031 -108.96875 100.832031 -105.644531 95.40625 -102.71875 L 95.40625 -100.421875 C 101.882812 -94.703125 105.125 -86.722656 105.125 -76.484375 C 105.125 -69.378906 103.347656 -63.003906 99.796875 -57.359375 C 96.242188 -51.722656 91.066406 -47.265625 84.265625 -43.984375 C 77.472656 -40.710938 69.410156 -39.078125 60.078125 -39.078125 L 55.6875 -39.1875 C 52.90625 -39.320312 50.957031 -39.390625 49.84375 -39.390625 C 47.195312 -39.390625 45.125 -38.675781 43.625 -37.25 C 42.125 -35.820312 41.375 -33.992188 41.375 -31.765625 C 41.375 -29.328125 42.347656 -27.425781 44.296875 -26.0625 C 46.253906 -24.707031 49.113281 -23.960938 52.875 -23.828125 L 78.6875 -22.890625 C 104.175781 -22.117188 116.921875 -11.144531 116.921875 10.03125 C 116.921875 17.488281 115.019531 24.125 111.21875 29.9375 C 107.425781 35.75 101.28125 40.363281 92.78125 43.78125 C 84.289062 47.195312 73.285156 48.90625 59.765625 48.90625 Z M 60.078125 -59.359375 C 65.648438 -59.359375 70.003906 -60.992188 73.140625 -64.265625 C 76.273438 -67.535156 77.84375 -72.203125 77.84375 -78.265625 C 77.84375 -84.328125 76.273438 -88.976562 73.140625 -92.21875 C 70.003906 -95.457031 65.648438 -97.078125 60.078125 -97.078125 C 54.441406 -97.078125 50.085938 -95.457031 47.015625 -92.21875 C 43.953125 -88.976562 42.421875 -84.328125 42.421875 -78.265625 C 42.421875 -72.128906 43.953125 -67.441406 47.015625 -64.203125 C 50.085938 -60.972656 54.441406 -59.359375 60.078125 -59.359375 Z M 59.765625 27.90625 C 69.660156 27.90625 76.851562 26.507812 81.34375 23.71875 C 85.84375 20.9375 88.09375 17.316406 88.09375 12.859375 C 88.09375 9.234375 86.941406 6.566406 84.640625 4.859375 C 82.335938 3.148438 78.679688 2.226562 73.671875 2.09375 L 50.890625 1.046875 C 50.117188 1.046875 49.398438 1.007812 48.734375 0.9375 C 48.078125 0.875 47.4375 0.84375 46.8125 0.84375 C 41.9375 0.84375 38.226562 1.882812 35.6875 3.96875 C 33.144531 6.0625 31.875 8.953125 31.875 12.640625 C 31.875 17.515625 34.207031 21.273438 38.875 23.921875 C 43.539062 26.578125 50.503906 27.90625 59.765625 27.90625 Z M 59.765625 27.90625 "/></g></g></g><path fill="#040606" d="M 815.417969 768.503906 C 863.117188 873.992188 987.28125 920.851562 1092.742188 873.167969 C 1198.246094 825.511719 1245.101562 701.339844 1197.402344 595.828125 C 1149.769531 490.339844 1025.605469 443.480469 920.101562 491.160156 C 814.640625 538.820312 767.789062 662.988281 815.417969 768.503906 " fill-opacity="1" fill-rule="nonzero"/><path fill="#f9d940" d="M 725.679688 1552.492188 C 725.679688 1552.492188 1092.976562 1497.457031 1163.609375 1295.691406 C 1234.222656 1093.921875 1152.589844 881.769531 981.335938 821.847656 C 810.011719 761.898438 613.96875 876.882812 543.335938 1078.648438 C 472.792969 1280.390625 725.679688 1552.492188 725.679688 1552.492188 " fill-opacity="1" fill-rule="nonzero"/><path fill="#f9d940" d="M 533.300781 1120.40625 C 526.980469 1165.101562 533.652344 1211.984375 547.613281 1257.667969 C 560.136719 1298.367188 578.417969 1338.152344 598.625 1374.625 C 641.390625 1451.960938 692.59375 1514.5625 714.660156 1540.085938 C 719.96875 1546.242188 723.5625 1550.238281 725.019531 1551.765625 C 725.445312 1552.210938 726.03125 1552.421875 726.640625 1552.328125 C 728.992188 1551.953125 735.429688 1550.894531 745.042969 1549.039062 C 783.015625 1541.800781 870.777344 1522.296875 957.273438 1483.425781 C 996.796875 1465.660156 1036.132812 1443.808594 1070.183594 1417.230469 C 1107.898438 1387.832031 1139.242188 1352.675781 1157.640625 1310.800781 C 1159.804688 1305.867188 1161.800781 1300.835938 1163.609375 1295.714844 C 1174.066406 1265.773438 1181.234375 1235.648438 1185.207031 1205.828125 C 1192.347656 1151.730469 1189.292969 1098.648438 1177.074219 1049.699219 C 1161.917969 988.902344 1132.6875 934.503906 1091.707031 892.578125 C 1061.160156 861.183594 1024.03125 836.792969 981.335938 821.847656 C 931.59375 804.433594 879.660156 801.777344 829.445312 811.765625 C 771.335938 823.257812 715.339844 851.597656 667.214844 893.449219 C 628.703125 926.890625 595.195312 968.929688 569.628906 1017.925781 C 559.59375 1037.125 550.808594 1057.429688 543.335938 1078.648438 C 538.589844 1092.277344 535.273438 1106.238281 533.300781 1120.40625 " fill-opacity="1" fill-rule="nonzero"/><path fill="#040606" d="M 598.625 1374.625 C 641.390625 1451.960938 692.59375 1514.5625 714.660156 1540.085938 C 717.5 1543.375 725.679688 1552.492188 725.679688 1552.492188 C 725.679688 1552.492188 739.261719 1550.144531 745.042969 1549.039062 C 783.015625 1541.800781 870.777344 1522.296875 957.273438 1483.425781 C 842.066406 1434.007812 721.824219 1397.511719 598.625 1374.625 Z M 533.300781 1120.40625 C 526.980469 1165.101562 533.652344 1211.984375 547.613281 1257.667969 C 729.816406 1279.664062 906.730469 1333.710938 1070.183594 1417.230469 C 1107.898438 1387.832031 1139.242188 1352.675781 1157.640625 1310.800781 C 963.832031 1207.472656 751.785156 1142.800781 533.300781 1120.40625 Z M 569.628906 1017.925781 C 785.644531 1037.078125 995.296875 1101.089844 1185.207031 1205.828125 C 1192.347656 1151.730469 1189.292969 1098.648438 1177.074219 1049.699219 C 1016.394531 970.996094 844.296875 918.265625 667.214844 893.449219 C 628.703125 926.890625 595.195312 968.929688 569.628906 1017.925781 Z M 829.445312 811.765625 C 919.066406 830.941406 1006.832031 857.964844 1091.707031 892.578125 C 1061.160156 861.183594 1032.703125 808.285156 989.984375 793.339844 C 940.238281 775.929688 879.660156 801.777344 829.445312 811.765625 " fill-opacity="1" fill-rule="nonzero"/><path fill="#040606" d="M 1090.625 546.410156 C 1095.253906 547.820312 1100.378906 545.632812 1102.492188 541.097656 C 1135.742188 469.636719 1206 425.339844 1277.363281 430.816406 C 1323.84375 434.410156 1358.433594 458.238281 1379.324219 477.625 C 1383.339844 481.363281 1389.613281 481.128906 1393.328125 477.109375 C 1397.0625 473.089844 1396.828125 466.816406 1392.855469 463.078125 C 1369.640625 441.53125 1331.082031 415.023438 1278.914062 411.003906 C 1199.328125 404.894531 1121.195312 453.796875 1084.492188 532.707031 C 1082.144531 537.691406 1084.328125 543.589844 1089.308594 545.914062 C 1089.734375 546.101562 1090.15625 546.269531 1090.625 546.410156 " fill-opacity="1" fill-rule="nonzero"/><path fill="#fab918" d="M 1412.171875 443.878906 C 1426.105469 459.085938 1425.097656 482.703125 1409.871094 496.636719 C 1394.667969 510.570312 1371.074219 509.539062 1357.117188 494.332031 C 1343.160156 479.128906 1344.238281 455.511719 1359.394531 441.578125 C 1374.621094 427.640625 1398.261719 428.675781 1412.171875 443.878906 " fill-opacity="1" fill-rule="nonzero"/><path fill="#040606" d="M 1036.371094 529.886719 C 1036.792969 530.007812 1037.285156 530.125 1037.753906 530.195312 C 1043.183594 531.039062 1048.234375 527.351562 1049.058594 521.921875 C 1062.59375 435.960938 1024.996094 351.785156 955.535156 312.496094 C 909.996094 286.761719 863.1875 287.257812 831.914062 292.214844 C 826.484375 293.0625 822.820312 298.160156 823.664062 303.566406 C 824.511719 308.992188 829.632812 312.683594 835.039062 311.835938 C 863.117188 307.371094 905.179688 306.855469 945.714844 329.789062 C 1008.03125 365.039062 1041.679688 441.011719 1029.460938 518.84375 C 1028.6875 523.800781 1031.691406 528.457031 1036.371094 529.886719 " fill-opacity="1" fill-rule="nonzero"/><path fill="#fab918" d="M 844.109375 338.0625 C 824.089844 342.925781 803.925781 330.613281 799.0625 310.566406 C 794.199219 290.523438 806.511719 270.335938 826.554688 265.496094 C 846.578125 260.632812 866.808594 272.945312 871.671875 292.988281 C 876.488281 313.035156 864.152344 333.222656 844.109375 338.0625 " fill-opacity="1" fill-rule="nonzero"/><path fill="#ffffff" d="M 1070.839844 931.332031 C 1070.839844 931.332031 1186.285156 1173.75 1375.585938 1207.144531 C 1564.886719 1240.535156 1735.363281 1171.167969 1756.300781 1052.210938 C 1777.308594 933.257812 1640.878906 809.765625 1451.554688 776.398438 C 1262.253906 743.003906 1070.839844 931.332031 1070.839844 931.332031 " fill-opacity="1" fill-rule="nonzero"/><path fill="#040606" d="M 1745.84375 1016.609375 C 1742.226562 973.699219 1717.742188 930.179688 1674.667969 891.21875 C 1618.742188 840.621094 1538.78125 804.105469 1449.464844 788.359375 C 1287.515625 759.785156 1120.28125 902.496094 1085.761719 933.960938 C 1107.472656 975.320312 1215.753906 1166.632812 1377.699219 1195.183594 C 1467.015625 1210.949219 1554.664062 1203.972656 1624.5 1175.5625 C 1692.433594 1147.925781 1735.011719 1103.371094 1744.386719 1050.097656 C 1746.3125 1039.050781 1746.808594 1027.84375 1745.84375 1016.609375 Z M 1056.15625 928.722656 L 1062.3125 922.660156 C 1070.300781 914.785156 1260.445312 730.339844 1453.671875 764.4375 C 1547.449219 780.957031 1631.738281 819.589844 1690.929688 873.214844 C 1751.742188 928.203125 1779.164062 992.546875 1768.285156 1054.328125 C 1757.382812 1116.105469 1709.5625 1167.148438 1633.640625 1198.050781 C 1559.667969 1228.152344 1467.277344 1235.625 1373.472656 1219.105469 C 1180.269531 1185.03125 1064.707031 946.675781 1059.84375 936.546875 L 1056.15625 928.722656 " fill-opacity="1" fill-rule="nonzero"/><path fill="#ffffff" d="M 1073.074219 931.214844 C 1073.074219 931.214844 1060.195312 1139.160156 1176.066406 1233.0625 C 1291.980469 1326.945312 1433.695312 1344.027344 1492.699219 1271.203125 C 1551.726562 1198.402344 1505.578125 1063.257812 1389.730469 969.351562 C 1273.816406 875.472656 1073.074219 931.214844 1073.074219 931.214844 " fill-opacity="1" fill-rule="nonzero"/><path fill="#040606" d="M 1078.972656 935.984375 C 1078.007812 966.25 1076.972656 1144.964844 1179.894531 1228.339844 C 1235.066406 1273.035156 1297.738281 1301.542969 1356.457031 1308.613281 C 1414.074219 1315.570312 1460.835938 1300.929688 1488.023438 1267.398438 C 1515.140625 1233.839844 1519.769531 1185.101562 1501.066406 1130.136719 C 1481.9375 1074.207031 1441.027344 1018.773438 1385.878906 974.074219 C 1282.957031 890.699219 1108.390625 928.746094 1078.972656 935.984375 Z M 1068.5625 999.242188 C 1065.320312 961.105469 1066.824219 933.867188 1066.988281 930.835938 L 1067.292969 926.511719 L 1071.453125 925.363281 C 1079.746094 923.035156 1276.566406 869.878906 1393.515625 964.652344 C 1450.425781 1010.757812 1492.699219 1068.144531 1512.507812 1126.234375 C 1532.71875 1185.289062 1527.289062 1238.140625 1497.398438 1275.035156 C 1467.558594 1311.929688 1416.964844 1328.144531 1355.027344 1320.671875 C 1294.070312 1313.339844 1229.171875 1283.894531 1172.257812 1237.765625 C 1096.523438 1176.382812 1074.507812 1069.390625 1068.5625 999.242188 " fill-opacity="1" fill-rule="nonzero"/><path fill="#ffffff" d="M 813.445312 852.914062 C 813.445312 852.914062 582.386719 989.796875 406.671875 911.96875 C 230.90625 834.136719 128.03125 681.53125 176.953125 571.082031 C 225.851562 460.636719 407.9375 434.199219 583.703125 512.027344 C 759.492188 589.835938 813.445312 852.914062 813.445312 852.914062 " fill-opacity="1" fill-rule="nonzero"/><path fill="#040606" d="M 799.558594 846.753906 C 788.417969 801.402344 729.15625 589.695312 578.769531 523.121094 C 495.890625 486.390625 409.089844 472.125 334.484375 482.960938 C 261.945312 493.488281 209.96875 526.527344 188.070312 575.996094 C 166.121094 625.460938 176.648438 686.183594 217.605469 746.976562 C 259.714844 809.484375 328.585938 864.144531 411.558594 900.875 C 561.945312 967.449219 758.457031 869.007812 799.558594 846.753906 Z M 153.175781 645.082031 C 150.824219 617.308594 154.984375 590.683594 165.816406 566.171875 C 191.265625 508.785156 249.914062 470.71875 331.007812 458.921875 C 410.101562 447.453125 501.601562 462.375 588.640625 500.914062 C 768.09375 580.367188 823.054688 839.472656 825.359375 850.46875 L 827.027344 858.953125 L 819.648438 863.347656 C 809.941406 869.082031 581.191406 1002.511719 401.734375 923.082031 C 314.628906 884.519531 242.160156 826.804688 197.445312 760.535156 C 171.21875 721.597656 156.371094 682.328125 153.175781 645.082031 " fill-opacity="1" fill-rule="nonzero"/><path fill="#ffffff" d="M 813.679688 852.183594 C 813.679688 852.183594 708.40625 1032.003906 559.878906 1045.351562 C 411.300781 1058.675781 284.082031 993.816406 275.714844 900.476562 C 267.351562 807.136719 380.988281 720.65625 529.519531 707.332031 C 678.023438 693.984375 813.679688 852.183594 813.679688 852.183594 " fill-opacity="1" fill-rule="nonzero"/><path fill="#040606" d="M 806.113281 852.84375 C 785.714844 830.46875 661.976562 701.527344 530.058594 713.371094 C 459.304688 719.71875 394.453125 742.933594 347.480469 778.726562 C 301.398438 813.761719 278.113281 856.625 281.730469 899.441406 C 281.730469 899.605469 281.800781 899.769531 281.800781 899.933594 C 285.632812 942.9375 316.25 981.125 367.992188 1007.515625 C 420.628906 1034.351562 488.609375 1045.65625 559.335938 1039.289062 C 691.324219 1027.445312 790.039062 878.550781 806.113281 852.84375 Z M 269.628906 900.476562 C 265.613281 853.359375 290.636719 806.710938 340.078125 769.066406 C 388.929688 731.914062 455.992188 707.828125 528.976562 701.269531 C 678.941406 687.804688 812.667969 841.679688 818.261719 848.234375 L 821.082031 851.503906 L 818.917969 855.238281 C 814.523438 862.6875 710.335938 1037.925781 560.441406 1051.390625 C 487.457031 1057.921875 417.152344 1046.195312 362.472656 1018.324219 C 306.875 989.984375 273.90625 948.320312 269.699219 901.039062 C 269.628906 900.828125 269.628906 900.664062 269.628906 900.476562 " fill-opacity="1" fill-rule="nonzero"/><g clip-path="url(#5bc790f4cd)"><path fill="#040606" d="M 640.003906 1745.871094 C 637.84375 1745.871094 635.683594 1745.46875 633.519531 1744.648438 C 624.261719 1741.027344 619.632812 1730.59375 623.226562 1721.289062 C 629.667969 1704.558594 636.035156 1687.378906 642.050781 1670.273438 C 645.363281 1660.871094 655.65625 1655.914062 665.03125 1659.226562 C 674.476562 1662.539062 679.410156 1672.832031 676.097656 1682.257812 C 669.964844 1699.695312 663.480469 1717.222656 656.851562 1734.332031 C 654.082031 1741.476562 647.289062 1745.871094 640.003906 1745.871094 Z M -4058.628906 1810.585938 C -4058.839844 1810.585938 -4059.050781 1810.585938 -4059.238281 1810.585938 C -4099.160156 1809.25 -4139.203125 1808.847656 -4178.703125 1809.320312 C -4178.773438 1809.34375 -4178.867188 1809.34375 -4178.9375 1809.34375 C -4188.804688 1809.34375 -4196.867188 1801.398438 -4196.984375 1791.507812 C -4197.101562 1781.542969 -4189.136719 1773.363281 -4179.171875 1773.246094 C -4139.085938 1772.730469 -4098.527344 1773.152344 -4058.039062 1774.515625 C -4048.078125 1774.84375 -4040.277344 1783.1875 -4040.605469 1793.152344 C -4040.933594 1802.902344 -4048.945312 1810.585938 -4058.628906 1810.585938 Z M -4478.769531 1830.890625 C -4487.675781 1830.890625 -4495.429688 1824.289062 -4496.628906 1815.21875 C -4497.945312 1805.347656 -4491.015625 1796.277344 -4481.121094 1794.960938 C -4441.410156 1789.671875 -4400.875 1785.277344 -4360.648438 1781.917969 C -4350.730469 1781.097656 -4341.988281 1788.449219 -4341.167969 1798.390625 C -4340.34375 1808.332031 -4347.699219 1817.050781 -4357.640625 1817.871094 C -4397.28125 1821.210938 -4437.226562 1825.53125 -4476.375 1830.726562 C -4477.171875 1830.84375 -4477.972656 1830.890625 -4478.769531 1830.890625 Z M -3759.191406 1837.140625 C -3760.039062 1837.140625 -3760.882812 1837.070312 -3761.753906 1836.953125 C -3801.207031 1831.3125 -3841.128906 1826.449219 -3880.417969 1822.523438 C -3890.335938 1821.539062 -3897.574219 1812.703125 -3896.585938 1802.785156 C -3895.597656 1792.867188 -3886.761719 1785.65625 -3876.824219 1786.617188 C -3837.042969 1790.589844 -3796.601562 1795.5 -3756.65625 1801.210938 C -3746.785156 1802.621094 -3739.925781 1811.785156 -3741.335938 1821.65625 C -3742.625 1830.65625 -3750.359375 1837.140625 -3759.191406 1837.140625 Z M -4773.648438 1889.097656 C -4781.636719 1889.097656 -4788.945312 1883.742188 -4791.082031 1875.65625 C -4793.621094 1866.023438 -4787.863281 1856.152344 -4778.230469 1853.589844 C -4739.433594 1843.347656 -4699.769531 1833.945312 -4660.292969 1825.652344 C -4650.542969 1823.605469 -4640.976562 1829.832031 -4638.910156 1839.585938 C -4636.867188 1849.339844 -4643.117188 1858.925781 -4652.867188 1860.96875 C -4691.734375 1869.148438 -4730.835938 1878.40625 -4769.019531 1888.488281 C -4770.570312 1888.886719 -4772.121094 1889.097656 -4773.648438 1889.097656 Z M -3464.316406 1895.726562 C -3465.820312 1895.726562 -3467.347656 1895.539062 -3468.851562 1895.140625 C -3507.90625 1885.011719 -3547.007812 1875.820312 -3585.121094 1867.855469 C -3594.871094 1865.8125 -3601.144531 1856.246094 -3599.101562 1846.496094 C -3597.082031 1836.742188 -3587.515625 1830.46875 -3577.742188 1832.511719 C -3539.0625 1840.597656 -3499.375 1849.925781 -3459.78125 1860.21875 C -3450.125 1862.734375 -3444.34375 1872.578125 -3446.859375 1882.214844 C -3448.972656 1890.34375 -3456.304688 1895.726562 -3464.316406 1895.726562 Z M -5058.703125 1984.34375 C -5065.820312 1984.34375 -5072.566406 1980.089844 -5075.433594 1973.085938 C -5079.167969 1963.851562 -5074.726562 1953.324219 -5065.492188 1949.5625 L -5062.085938 1948.175781 C -5025.96875 1933.535156 -4988.960938 1919.578125 -4952.113281 1906.746094 C -4942.691406 1903.457031 -4932.398438 1908.4375 -4929.132812 1917.839844 C -4925.84375 1927.261719 -4930.824219 1937.53125 -4940.226562 1940.820312 C -4976.503906 1953.464844 -5012.949219 1967.210938 -5048.550781 1981.640625 L -5051.910156 1983.003906 C -5054.144531 1983.894531 -5056.421875 1984.34375 -5058.703125 1984.34375 Z M -3177.664062 1986.269531 C -3179.734375 1986.269531 -3181.824219 1985.917969 -3183.867188 1985.164062 C -3222.242188 1971.089844 -3260.261719 1957.882812 -3296.894531 1945.851562 C -3306.363281 1942.75 -3311.53125 1932.550781 -3308.429688 1923.078125 C -3305.304688 1913.609375 -3295.109375 1908.464844 -3285.636719 1911.566406 C -3248.605469 1923.714844 -3210.1875 1937.0625 -3171.4375 1951.277344 C -3162.085938 1954.710938 -3157.292969 1965.074219 -3160.722656 1974.425781 C -3163.402344 1981.757812 -3170.308594 1986.269531 -3177.664062 1986.269531 Z M 507.242188 2015.246094 C 504 2015.246094 500.828125 2014.398438 497.867188 2012.589844 C 489.335938 2007.394531 486.679688 1996.304688 491.851562 1987.796875 C 512.363281 1954.214844 531.984375 1919.320312 550.148438 1884.070312 C 554.660156 1875.210938 565.539062 1871.734375 574.445312 1876.292969 C 583.28125 1880.851562 586.78125 1891.730469 582.199219 1900.589844 C 563.683594 1936.617188 543.640625 1972.289062 522.65625 2006.597656 C 519.273438 2012.167969 513.328125 2015.246094 507.242188 2015.246094 Z M -2898.929688 2099.160156 C -2901.351562 2099.160156 -2903.820312 2098.667969 -2906.167969 2097.65625 C -2944.871094 2080.714844 -2980.964844 2065.34375 -3016.515625 2050.636719 C -3025.726562 2046.828125 -3030.097656 2036.277344 -3026.289062 2027.066406 C -3022.484375 2017.851562 -3011.910156 2013.480469 -3002.722656 2017.289062 C -2966.957031 2032.09375 -2930.628906 2047.554688 -2891.695312 2064.570312 C -2882.578125 2068.566406 -2878.394531 2079.1875 -2882.390625 2088.328125 C -2885.351562 2095.121094 -2892 2099.160156 -2898.929688 2099.160156 Z M -5329.375 2115.023438 C -5335.671875 2115.023438 -5341.804688 2111.710938 -5345.117188 2105.8125 C -5350.007812 2097.117188 -5346.929688 2086.117188 -5338.234375 2081.230469 C -5303.105469 2061.492188 -5267.082031 2042.410156 -5231.152344 2024.480469 C -5222.222656 2020.039062 -5211.390625 2023.679688 -5206.949219 2032.585938 C -5202.507812 2041.515625 -5206.128906 2052.351562 -5215.058594 2056.792969 C -5250.445312 2074.441406 -5285.949219 2093.261719 -5320.539062 2112.695312 C -5323.335938 2114.273438 -5326.367188 2115.023438 -5329.375 2115.023438 Z M -2625.203125 2223.828125 C -2627.765625 2223.828125 -2630.375 2223.285156 -2632.839844 2222.132812 C -2669.144531 2205.167969 -2705.472656 2188.269531 -2741.894531 2171.539062 C -2750.941406 2167.355469 -2754.914062 2156.640625 -2750.730469 2147.59375 C -2746.570312 2138.523438 -2735.855469 2134.574219 -2726.808594 2138.734375 C -2690.339844 2155.511719 -2653.941406 2172.433594 -2617.566406 2189.421875 C -2608.542969 2193.628906 -2604.621094 2204.367188 -2608.847656 2213.414062 C -2611.902344 2219.972656 -2618.414062 2223.828125 -2625.203125 2223.828125 Z M 327.339844 2255.621094 C 322.996094 2255.621094 318.671875 2254.070312 315.167969 2250.945312 C 307.839844 2244.222656 307.296875 2232.804688 313.972656 2225.449219 C 340.453125 2196.332031 366.183594 2165.734375 390.503906 2134.503906 C 396.636719 2126.632812 407.988281 2125.222656 415.8125 2131.332031 C 423.707031 2137.464844 425.140625 2148.792969 419.007812 2156.664062 C 394.167969 2188.625 367.804688 2219.949219 340.6875 2249.722656 C 337.140625 2253.648438 332.253906 2255.621094 327.339844 2255.621094 Z M -5581.859375 2278.132812 C -5587.40625 2278.132812 -5592.859375 2275.59375 -5596.40625 2270.777344 C -5602.328125 2262.765625 -5600.589844 2251.460938 -5592.574219 2245.539062 C -5560.148438 2221.6875 -5526.734375 2198.304688 -5493.273438 2176.097656 C -5484.953125 2170.601562 -5473.746094 2172.855469 -5468.246094 2181.152344 C -5462.75 2189.46875 -5465.003906 2200.65625 -5473.300781 2206.179688 C -5506.292969 2228.054688 -5539.210938 2251.085938 -5571.167969 2274.609375 C -5574.386719 2276.980469 -5578.148438 2278.132812 -5581.859375 2278.132812 Z M -2352.34375 2350.417969 C -2354.835938 2350.417969 -2357.375 2349.902344 -2359.792969 2348.820312 C -2392.878906 2333.78125 -2427.65625 2317.800781 -2469.269531 2298.484375 C -2478.292969 2294.277344 -2482.21875 2283.5625 -2478.035156 2274.515625 C -2473.828125 2265.492188 -2463.089844 2261.542969 -2454.066406 2265.75 C -2412.546875 2285.019531 -2377.863281 2300.953125 -2344.871094 2315.945312 C -2335.800781 2320.054688 -2331.785156 2330.75 -2335.894531 2339.820312 C -2338.925781 2346.492188 -2345.484375 2350.417969 -2352.34375 2350.417969 Z M 104.628906 2456.847656 C 99.105469 2456.847656 93.628906 2454.308594 90.082031 2449.515625 C 84.183594 2441.503906 85.875 2430.199219 93.9375 2424.277344 C 125.632812 2400.894531 156.792969 2375.890625 186.636719 2349.972656 C 194.15625 2343.4375 205.527344 2344.238281 212.082031 2351.78125 C 218.640625 2359.300781 217.792969 2370.699219 210.273438 2377.230469 C 179.773438 2403.761719 147.816406 2429.351562 115.34375 2453.320312 C 112.101562 2455.695312 108.363281 2456.847656 104.628906 2456.847656 Z M -2076.21875 2469.582031 C -2078.476562 2469.582031 -2080.777344 2469.160156 -2083.035156 2468.246094 C -2118.894531 2453.605469 -2156.324219 2437.976562 -2194.296875 2421.785156 C -2203.460938 2417.886719 -2207.738281 2407.285156 -2203.8125 2398.121094 C -2199.914062 2388.957031 -2189.316406 2384.679688 -2180.152344 2388.605469 C -2142.34375 2404.703125 -2105.074219 2420.257812 -2069.382812 2434.828125 C -2060.171875 2438.589844 -2055.730469 2449.117188 -2059.488281 2458.351562 C -2062.355469 2465.355469 -2069.101562 2469.582031 -2076.21875 2469.582031 Z M -5812.679688 2470.710938 C -5817.476562 2470.710938 -5822.246094 2468.808594 -5825.792969 2465.046875 C -5832.65625 2457.8125 -5832.300781 2446.367188 -5825.066406 2439.550781 C -5795.832031 2411.964844 -5765.496094 2384.726562 -5734.902344 2358.570312 C -5727.335938 2352.085938 -5715.941406 2352.980469 -5709.453125 2360.546875 C -5702.992188 2368.113281 -5703.886719 2379.511719 -5711.453125 2385.996094 C -5741.601562 2411.773438 -5771.488281 2438.636719 -5800.296875 2465.800781 C -5803.777344 2469.089844 -5808.242188 2470.710938 -5812.679688 2470.710938 Z M -1794.996094 2576.25 C -1796.921875 2576.25 -1798.96875 2575.917969 -1800.894531 2575.238281 C -1837.832031 2562.40625 -1876.089844 2548.636719 -1914.460938 2534.253906 C -1923.8125 2530.777344 -1928.558594 2520.367188 -1925.058594 2511.035156 C -1921.554688 2501.707031 -1911.148438 2496.960938 -1901.816406 2500.460938 C -1863.679688 2514.726562 -1825.730469 2528.425781 -1789.097656 2541.140625 C -1779.652344 2544.40625 -1774.671875 2554.699219 -1777.914062 2564.121094 C -1780.5 2571.570312 -1787.523438 2576.25 -1794.996094 2576.25 Z M -153.496094 2610.179688 C -160.289062 2610.179688 -166.773438 2606.328125 -169.851562 2599.769531 C -174.058594 2590.722656 -170.15625 2579.984375 -161.136719 2575.777344 C -125.324219 2559.09375 -89.792969 2540.765625 -55.558594 2521.304688 C -46.839844 2516.394531 -35.820312 2519.449219 -30.957031 2528.097656 C -26.019531 2536.769531 -29.027344 2547.789062 -37.699219 2552.703125 C -72.828125 2572.628906 -109.203125 2591.40625 -145.90625 2608.488281 C -148.375 2609.640625 -150.960938 2610.179688 -153.496094 2610.179688 Z M -1507.523438 2664.582031 C -1509.027344 2664.582031 -1510.578125 2664.371094 -1512.152344 2663.972656 C -1550.171875 2653.914062 -1589.320312 2642.871094 -1628.488281 2631.121094 C -1638.054688 2628.253906 -1643.457031 2618.195312 -1640.566406 2608.652344 C -1637.746094 2599.113281 -1627.691406 2593.707031 -1618.128906 2596.550781 C -1579.332031 2608.183594 -1540.605469 2619.109375 -1502.871094 2629.074219 C -1493.257812 2631.613281 -1487.550781 2641.484375 -1490.0625 2651.117188 C -1492.179688 2659.226562 -1499.507812 2664.582031 -1507.523438 2664.582031 Z M -6018.359375 2689.9375 C -6022.425781 2689.9375 -6026.488281 2688.574219 -6029.875 2685.777344 C -6037.535156 2679.433594 -6038.589844 2668.0625 -6032.246094 2660.375 C -6006.609375 2629.472656 -5979.824219 2598.714844 -5952.636719 2569.011719 C -5945.890625 2561.65625 -5934.472656 2561.160156 -5927.140625 2567.882812 C -5919.785156 2574.601562 -5919.269531 2586.023438 -5926.011719 2593.378906 C -5952.800781 2622.660156 -5979.210938 2652.949219 -6004.449219 2683.40625 C -6008.019531 2687.707031 -6013.167969 2689.9375 -6018.359375 2689.9375 Z M -436.882812 2709.75 C -444.992188 2709.75 -452.34375 2704.226562 -454.390625 2695.976562 C -456.738281 2686.296875 -450.839844 2676.542969 -441.136719 2674.171875 C -402.71875 2664.722656 -364.273438 2653.703125 -326.914062 2641.414062 C -317.417969 2638.285156 -307.246094 2643.433594 -304.121094 2652.902344 C -300.996094 2662.375 -306.164062 2672.597656 -315.609375 2675.699219 C -353.863281 2688.292969 -393.199219 2699.574219 -432.535156 2709.207031 C -433.992188 2709.5625 -435.425781 2709.75 -436.882812 2709.75 Z M -1213.421875 2727.230469 C -1214.386719 2727.230469 -1215.347656 2727.136719 -1216.242188 2726.996094 C -1255.292969 2720.792969 -1295.40625 2713.53125 -1335.398438 2705.402344 C -1345.222656 2703.402344 -1351.472656 2693.863281 -1349.476562 2684.109375 C -1347.5 2674.335938 -1337.9375 2668.011719 -1328.257812 2670.011719 C -1288.660156 2678.070312 -1249.136719 2685.238281 -1210.648438 2691.347656 C -1200.78125 2692.898438 -1194.035156 2702.160156 -1195.609375 2712.003906 C -1197.042969 2720.886719 -1204.703125 2727.230469 -1213.421875 2727.230469 Z M -733.921875 2753.667969 C -743.414062 2753.667969 -751.355469 2746.265625 -751.898438 2736.679688 C -752.507812 2726.714844 -744.871094 2718.183594 -734.957031 2717.621094 C -726.167969 2717.105469 -717.449219 2716.539062 -708.660156 2715.929688 C -677.855469 2713.742188 -646.816406 2710.640625 -616.433594 2706.742188 C -606.515625 2705.496094 -597.492188 2712.476562 -596.222656 2722.34375 C -594.953125 2732.238281 -601.933594 2741.285156 -611.875 2742.554688 C -642.914062 2746.550781 -674.613281 2749.699219 -706.078125 2751.929688 C -715.027344 2752.566406 -723.933594 2753.128906 -732.839844 2753.644531 C -733.191406 2753.667969 -733.570312 2753.667969 -733.921875 2753.667969 Z M -914.269531 2756.019531 C -914.457031 2756.019531 -914.621094 2756.019531 -914.808594 2755.996094 C -954.566406 2754.820312 -995.289062 2752.449219 -1035.894531 2749.039062 C -1045.832031 2748.195312 -1053.164062 2739.453125 -1052.320312 2729.535156 C -1051.472656 2719.59375 -1042.753906 2712.238281 -1032.839844 2713.0625 C -992.894531 2716.445312 -952.828125 2718.75 -913.726562 2719.925781 C -903.789062 2720.230469 -895.917969 2728.546875 -896.222656 2738.511719 C -896.527344 2748.289062 -904.585938 2756.019531 -914.269531 2756.019531 Z M -6195.394531 2932.875 C -6198.707031 2932.875 -6202.066406 2931.960938 -6205.050781 2930.054688 C -6213.464844 2924.699219 -6215.953125 2913.535156 -6210.597656 2905.125 C -6189.046875 2871.261719 -6166.277344 2837.421875 -6142.945312 2804.546875 C -6137.164062 2796.4375 -6125.910156 2794.511719 -6117.777344 2800.292969 C -6109.648438 2806.050781 -6107.746094 2817.328125 -6113.503906 2825.460938 C -6136.507812 2857.820312 -6158.925781 2891.164062 -6180.144531 2924.511719 C -6183.574219 2929.914062 -6189.425781 2932.875 -6195.394531 2932.875 " fill-opacity="1" fill-rule="nonzero"/></g></svg>