<svg xmlns="http://www.w3.org/2000/svg" xmlns:xlink="http://www.w3.org/1999/xlink" width="2560" zoomAndPan="magnify" viewBox="0 0 1920 872.999996" height="1164" preserveAspectRatio="xMidYMid meet" version="1.0"><defs><g/><clipPath id="ec447dbad5"><path d="M 1672 98.007812 L 1687 98.007812 L 1687 114 L 1672 114 Z M 1672 98.007812 " clip-rule="nonzero"/></clipPath><clipPath id="6302d058ed"><path d="M 311 369 L 1649 369 L 1649 616.257812 L 311 616.257812 Z M 311 369 " clip-rule="nonzero"/></clipPath><clipPath id="b581cf0f38"><rect x="0" width="1657" y="0" height="742"/></clipPath></defs><path fill="#040606" d="M 1675.570312 196.554688 C 1684.824219 217.011719 1708.914062 226.097656 1729.371094 216.851562 C 1749.839844 207.609375 1758.929688 183.527344 1749.675781 163.066406 C 1740.4375 142.605469 1716.347656 133.519531 1695.878906 142.765625 C 1675.417969 152.007812 1666.328125 176.089844 1675.570312 196.554688 " fill-opacity="1" fill-rule="nonzero"/><path fill="#f9d940" d="M 1658.160156 348.597656 C 1658.160156 348.597656 1729.417969 337.925781 1743.121094 298.792969 C 1756.820312 259.664062 1740.984375 218.519531 1707.757812 206.898438 C 1674.523438 195.273438 1636.488281 217.570312 1622.785156 256.703125 C 1609.097656 295.828125 1658.160156 348.597656 1658.160156 348.597656 " fill-opacity="1" fill-rule="nonzero"/><path fill="#f9d940" d="M 1620.839844 264.800781 C 1619.613281 273.46875 1620.90625 282.5625 1623.613281 291.421875 C 1626.042969 299.3125 1629.589844 307.03125 1633.511719 314.101562 C 1641.808594 329.101562 1651.742188 341.242188 1656.023438 346.191406 C 1657.050781 347.386719 1657.75 348.160156 1658.03125 348.457031 C 1658.113281 348.542969 1658.230469 348.585938 1658.347656 348.566406 C 1658.804688 348.492188 1660.050781 348.289062 1661.917969 347.929688 C 1669.285156 346.523438 1686.3125 342.742188 1703.089844 335.203125 C 1710.757812 331.757812 1718.390625 327.519531 1724.996094 322.367188 C 1732.3125 316.664062 1738.394531 309.847656 1741.964844 301.726562 C 1742.382812 300.769531 1742.769531 299.792969 1743.121094 298.800781 C 1745.148438 292.992188 1746.539062 287.152344 1747.3125 281.367188 C 1748.695312 270.875 1748.105469 260.582031 1745.734375 251.085938 C 1742.792969 239.296875 1737.121094 228.746094 1729.171875 220.617188 C 1723.246094 214.527344 1716.042969 209.796875 1707.757812 206.898438 C 1698.109375 203.523438 1688.035156 203.007812 1678.292969 204.945312 C 1667.019531 207.171875 1656.15625 212.667969 1646.816406 220.785156 C 1639.347656 227.269531 1632.84375 235.421875 1627.886719 244.925781 C 1625.9375 248.648438 1624.234375 252.585938 1622.785156 256.703125 C 1621.863281 259.34375 1621.222656 262.054688 1620.839844 264.800781 " fill-opacity="1" fill-rule="nonzero"/><path fill="#040606" d="M 1633.511719 314.101562 C 1641.808594 329.101562 1651.742188 341.242188 1656.023438 346.191406 C 1656.574219 346.832031 1658.160156 348.597656 1658.160156 348.597656 C 1658.160156 348.597656 1660.796875 348.144531 1661.917969 347.929688 C 1669.285156 346.523438 1686.3125 342.742188 1703.089844 335.203125 C 1680.738281 325.621094 1657.414062 318.542969 1633.511719 314.101562 Z M 1620.839844 264.800781 C 1619.613281 273.46875 1620.90625 282.5625 1623.613281 291.421875 C 1658.960938 295.6875 1693.285156 306.167969 1724.996094 322.367188 C 1732.3125 316.664062 1738.394531 309.847656 1741.964844 301.726562 C 1704.363281 281.6875 1663.226562 269.144531 1620.839844 264.800781 Z M 1627.886719 244.925781 C 1669.792969 248.640625 1710.46875 261.054688 1747.3125 281.367188 C 1748.695312 270.875 1748.105469 260.582031 1745.734375 251.085938 C 1714.5625 235.824219 1681.171875 225.597656 1646.816406 220.785156 C 1639.347656 227.269531 1632.84375 235.421875 1627.886719 244.925781 Z M 1678.292969 204.945312 C 1695.679688 208.664062 1712.707031 213.902344 1729.171875 220.617188 C 1723.246094 214.527344 1717.726562 204.269531 1709.4375 201.371094 C 1699.785156 197.992188 1688.035156 203.007812 1678.292969 204.945312 " fill-opacity="1" fill-rule="nonzero"/><path fill="#040606" d="M 1728.960938 153.480469 C 1729.859375 153.753906 1730.855469 153.332031 1731.265625 152.449219 C 1737.714844 138.589844 1751.34375 130 1765.191406 131.0625 C 1774.207031 131.761719 1780.917969 136.382812 1784.972656 140.140625 C 1785.75 140.867188 1786.96875 140.820312 1787.6875 140.042969 C 1788.414062 139.261719 1788.367188 138.042969 1787.597656 137.320312 C 1783.09375 133.140625 1775.613281 128 1765.492188 127.222656 C 1750.050781 126.035156 1734.894531 135.519531 1727.773438 150.824219 C 1727.316406 151.789062 1727.742188 152.933594 1728.707031 153.386719 C 1728.789062 153.421875 1728.871094 153.453125 1728.960938 153.480469 " fill-opacity="1" fill-rule="nonzero"/><path fill="#fab918" d="M 1791.34375 133.597656 C 1794.046875 136.546875 1793.851562 141.125 1790.898438 143.828125 C 1787.949219 146.53125 1783.371094 146.332031 1780.664062 143.382812 C 1777.953125 140.433594 1778.164062 135.851562 1781.105469 133.148438 C 1784.058594 130.449219 1788.644531 130.648438 1791.34375 133.597656 " fill-opacity="1" fill-rule="nonzero"/><path fill="#040606" d="M 1718.4375 150.277344 C 1718.519531 150.300781 1718.613281 150.324219 1718.703125 150.335938 C 1719.757812 150.5 1720.738281 149.785156 1720.898438 148.730469 C 1723.523438 132.0625 1716.230469 115.734375 1702.753906 108.117188 C 1693.917969 103.125 1684.839844 103.222656 1678.769531 104.183594 C 1677.71875 104.347656 1677.007812 105.335938 1677.171875 106.382812 C 1677.335938 107.4375 1678.328125 108.152344 1679.375 107.988281 C 1684.824219 107.121094 1692.984375 107.023438 1700.847656 111.46875 C 1712.9375 118.304688 1719.464844 133.039062 1717.097656 148.136719 C 1716.945312 149.097656 1717.527344 150 1718.4375 150.277344 " fill-opacity="1" fill-rule="nonzero"/><g clip-path="url(#ec447dbad5)"><path fill="#fab918" d="M 1681.136719 113.074219 C 1677.253906 114.019531 1673.339844 111.628906 1672.398438 107.742188 C 1671.453125 103.855469 1673.84375 99.941406 1677.730469 99 C 1681.613281 98.058594 1685.539062 100.445312 1686.484375 104.332031 C 1687.417969 108.222656 1685.023438 112.136719 1681.136719 113.074219 " fill-opacity="1" fill-rule="nonzero"/></g><path fill="#ffffff" d="M 1725.125 228.132812 C 1725.125 228.132812 1747.519531 275.144531 1784.246094 281.621094 C 1820.972656 288.097656 1854.042969 274.644531 1858.105469 251.574219 C 1862.183594 228.503906 1835.714844 204.554688 1798.984375 198.085938 C 1762.257812 191.609375 1725.125 228.132812 1725.125 228.132812 " fill-opacity="1" fill-rule="nonzero"/><path fill="#040606" d="M 1856.078125 244.671875 C 1855.375 236.347656 1850.625 227.910156 1842.269531 220.351562 C 1831.417969 210.539062 1815.90625 203.457031 1798.578125 200.402344 C 1767.160156 194.863281 1734.714844 222.539062 1728.019531 228.640625 C 1732.230469 236.664062 1753.238281 273.765625 1784.65625 279.300781 C 1801.984375 282.359375 1818.988281 281.007812 1832.535156 275.496094 C 1845.714844 270.136719 1853.976562 261.496094 1855.796875 251.164062 C 1856.167969 249.023438 1856.265625 246.847656 1856.078125 244.671875 Z M 1722.273438 227.625 L 1723.46875 226.449219 C 1725.019531 224.921875 1761.90625 189.152344 1799.394531 195.765625 C 1817.589844 198.96875 1833.941406 206.460938 1845.425781 216.859375 C 1857.222656 227.527344 1862.542969 240.003906 1860.433594 251.984375 C 1858.316406 263.96875 1849.039062 273.867188 1834.308594 279.859375 C 1819.960938 285.695312 1802.035156 287.144531 1783.835938 283.941406 C 1746.355469 277.332031 1723.933594 231.109375 1722.988281 229.144531 L 1722.273438 227.625 " fill-opacity="1" fill-rule="nonzero"/><path fill="#ffffff" d="M 1725.558594 228.109375 C 1725.558594 228.109375 1723.058594 268.4375 1745.539062 286.648438 C 1768.027344 304.855469 1795.519531 308.167969 1806.964844 294.046875 C 1818.417969 279.925781 1809.464844 253.71875 1786.992188 235.503906 C 1764.503906 217.296875 1725.558594 228.109375 1725.558594 228.109375 " fill-opacity="1" fill-rule="nonzero"/><path fill="#040606" d="M 1726.699219 229.035156 C 1726.515625 234.902344 1726.3125 269.5625 1746.28125 285.734375 C 1756.984375 294.402344 1769.144531 299.929688 1780.535156 301.300781 C 1791.714844 302.652344 1800.785156 299.8125 1806.058594 293.308594 C 1811.320312 286.800781 1812.21875 277.347656 1808.589844 266.6875 C 1804.878906 255.839844 1796.941406 245.089844 1786.242188 236.421875 C 1766.277344 220.25 1732.410156 227.628906 1726.699219 229.035156 Z M 1724.679688 241.300781 C 1724.050781 233.90625 1724.34375 228.625 1724.375 228.035156 L 1724.433594 227.199219 L 1725.242188 226.972656 C 1726.851562 226.523438 1765.035156 216.214844 1787.722656 234.59375 C 1798.765625 243.535156 1806.964844 254.664062 1810.808594 265.929688 C 1814.730469 277.382812 1813.675781 287.632812 1807.878906 294.789062 C 1802.089844 301.945312 1792.273438 305.089844 1780.257812 303.640625 C 1768.433594 302.21875 1755.839844 296.507812 1744.800781 287.5625 C 1730.105469 275.65625 1725.835938 254.90625 1724.679688 241.300781 " fill-opacity="1" fill-rule="nonzero"/><path fill="#ffffff" d="M 1675.1875 212.921875 C 1675.1875 212.921875 1630.359375 239.46875 1596.269531 224.375 C 1562.171875 209.28125 1542.214844 179.6875 1551.703125 158.265625 C 1561.191406 136.847656 1596.515625 131.71875 1630.617188 146.8125 C 1664.71875 161.902344 1675.1875 212.921875 1675.1875 212.921875 " fill-opacity="1" fill-rule="nonzero"/><path fill="#040606" d="M 1672.492188 211.730469 C 1670.332031 202.933594 1658.835938 161.875 1629.660156 148.964844 C 1613.582031 141.839844 1596.742188 139.074219 1582.265625 141.175781 C 1568.195312 143.21875 1558.109375 149.625 1553.859375 159.21875 C 1549.601562 168.8125 1551.644531 180.589844 1559.589844 192.378906 C 1567.761719 204.5 1581.121094 215.101562 1597.21875 222.226562 C 1626.394531 235.136719 1664.519531 216.046875 1672.492188 211.730469 Z M 1547.089844 172.617188 C 1546.636719 167.230469 1547.441406 162.066406 1549.542969 157.3125 C 1554.480469 146.183594 1565.859375 138.800781 1581.589844 136.511719 C 1596.9375 134.289062 1614.6875 137.183594 1631.574219 144.65625 C 1666.390625 160.066406 1677.050781 210.316406 1677.5 212.449219 L 1677.820312 214.09375 L 1676.390625 214.945312 C 1674.507812 216.058594 1630.128906 241.9375 1595.3125 226.53125 C 1578.414062 219.054688 1564.355469 207.859375 1555.679688 195.007812 C 1550.59375 187.457031 1547.710938 179.839844 1547.089844 172.617188 " fill-opacity="1" fill-rule="nonzero"/><path fill="#ffffff" d="M 1675.234375 212.78125 C 1675.234375 212.78125 1654.808594 247.65625 1625.992188 250.246094 C 1597.167969 252.828125 1572.488281 240.25 1570.863281 222.148438 C 1569.242188 204.046875 1591.289062 187.273438 1620.105469 184.691406 C 1648.914062 182.101562 1675.234375 212.78125 1675.234375 212.78125 " fill-opacity="1" fill-rule="nonzero"/><path fill="#040606" d="M 1673.765625 212.910156 C 1669.808594 208.570312 1645.800781 183.566406 1620.207031 185.863281 C 1606.480469 187.09375 1593.898438 191.59375 1584.789062 198.535156 C 1575.847656 205.332031 1571.328125 213.644531 1572.03125 221.949219 C 1572.03125 221.980469 1572.046875 222.011719 1572.046875 222.042969 C 1572.789062 230.382812 1578.730469 237.789062 1588.765625 242.90625 C 1598.980469 248.113281 1612.167969 250.304688 1625.890625 249.070312 C 1651.496094 246.773438 1670.648438 217.894531 1673.765625 212.910156 Z M 1569.683594 222.148438 C 1568.90625 213.011719 1573.757812 203.964844 1583.351562 196.664062 C 1592.828125 189.457031 1605.839844 184.785156 1620 183.515625 C 1649.09375 180.902344 1675.035156 210.746094 1676.121094 212.015625 L 1676.667969 212.648438 L 1676.25 213.375 C 1675.398438 214.820312 1655.183594 248.804688 1626.101562 251.414062 C 1611.945312 252.683594 1598.304688 250.410156 1587.695312 245.003906 C 1576.910156 239.507812 1570.515625 231.425781 1569.699219 222.257812 C 1569.683594 222.214844 1569.683594 222.183594 1569.683594 222.148438 " fill-opacity="1" fill-rule="nonzero"/><g clip-path="url(#6302d058ed)"><path fill="#040606" d="M 1641.539062 386.101562 C 1641.121094 386.101562 1640.699219 386.023438 1640.28125 385.863281 C 1638.484375 385.164062 1637.585938 383.140625 1638.285156 381.335938 C 1639.535156 378.089844 1640.769531 374.757812 1641.9375 371.441406 C 1642.578125 369.617188 1644.574219 368.65625 1646.394531 369.296875 C 1648.226562 369.941406 1649.183594 371.9375 1648.542969 373.765625 C 1647.351562 377.144531 1646.09375 380.546875 1644.808594 383.863281 C 1644.269531 385.25 1642.953125 386.101562 1641.539062 386.101562 Z M 729.976562 398.652344 C 729.9375 398.652344 729.894531 398.652344 729.859375 398.652344 C 722.113281 398.394531 714.34375 398.316406 706.683594 398.40625 C 706.667969 398.410156 706.652344 398.410156 706.636719 398.410156 C 704.722656 398.410156 703.160156 396.871094 703.136719 394.953125 C 703.113281 393.019531 704.660156 391.433594 706.589844 391.410156 C 714.367188 391.3125 722.238281 391.394531 730.089844 391.65625 C 732.023438 391.722656 733.539062 393.339844 733.472656 395.269531 C 733.410156 397.164062 731.855469 398.652344 729.976562 398.652344 Z M 648.46875 402.589844 C 646.738281 402.589844 645.234375 401.308594 645.003906 399.550781 C 644.746094 397.636719 646.09375 395.878906 648.011719 395.621094 C 655.714844 394.597656 663.578125 393.746094 671.382812 393.09375 C 673.308594 392.933594 675.003906 394.359375 675.164062 396.289062 C 675.324219 398.214844 673.894531 399.90625 671.96875 400.066406 C 664.277344 400.710938 656.527344 401.550781 648.933594 402.558594 C 648.777344 402.582031 648.621094 402.589844 648.46875 402.589844 Z M 788.070312 403.800781 C 787.90625 403.800781 787.742188 403.789062 787.574219 403.765625 C 779.917969 402.671875 772.171875 401.730469 764.550781 400.96875 C 762.628906 400.777344 761.222656 399.0625 761.414062 397.140625 C 761.605469 395.214844 763.320312 393.816406 765.25 394.003906 C 772.964844 394.773438 780.8125 395.726562 788.5625 396.835938 C 790.476562 397.109375 791.808594 398.886719 791.535156 400.800781 C 791.285156 402.542969 789.785156 403.800781 788.070312 403.800781 Z M 591.257812 413.878906 C 589.710938 413.878906 588.292969 412.839844 587.878906 411.273438 C 587.382812 409.402344 588.5 407.488281 590.371094 406.992188 C 597.898438 405.007812 605.59375 403.183594 613.25 401.574219 C 615.144531 401.175781 617 402.386719 617.398438 404.277344 C 617.796875 406.167969 616.582031 408.027344 614.691406 408.425781 C 607.152344 410.011719 599.566406 411.804688 592.15625 413.761719 C 591.855469 413.839844 591.554688 413.878906 591.257812 413.878906 Z M 845.277344 415.164062 C 844.984375 415.164062 844.6875 415.128906 844.398438 415.050781 C 836.820312 413.085938 829.234375 411.304688 821.839844 409.757812 C 819.949219 409.363281 818.730469 407.507812 819.128906 405.617188 C 819.519531 403.726562 821.375 402.507812 823.273438 402.90625 C 830.777344 404.472656 838.476562 406.28125 846.15625 408.277344 C 848.03125 408.765625 849.152344 410.675781 848.664062 412.542969 C 848.253906 414.121094 846.832031 415.164062 845.277344 415.164062 Z M 535.957031 432.351562 C 534.578125 432.351562 533.269531 431.527344 532.710938 430.167969 C 531.988281 428.375 532.847656 426.335938 534.640625 425.605469 L 535.300781 425.335938 C 542.308594 422.496094 549.488281 419.789062 556.636719 417.300781 C 558.464844 416.664062 560.460938 417.628906 561.09375 419.453125 C 561.734375 421.28125 560.765625 423.273438 558.941406 423.910156 C 551.902344 426.363281 544.832031 429.027344 537.925781 431.828125 L 537.273438 432.089844 C 536.84375 432.265625 536.398438 432.351562 535.957031 432.351562 Z M 900.890625 432.722656 C 900.488281 432.722656 900.082031 432.65625 899.6875 432.511719 C 892.242188 429.78125 884.867188 427.21875 877.757812 424.886719 C 875.921875 424.285156 874.917969 422.304688 875.519531 420.46875 C 876.125 418.632812 878.105469 417.632812 879.941406 418.234375 C 887.125 420.59375 894.582031 423.179688 902.097656 425.9375 C 903.910156 426.605469 904.84375 428.613281 904.175781 430.425781 C 903.65625 431.847656 902.316406 432.722656 900.890625 432.722656 Z M 1615.78125 438.34375 C 1615.152344 438.34375 1614.539062 438.179688 1613.964844 437.828125 C 1612.308594 436.820312 1611.792969 434.671875 1612.796875 433.019531 C 1616.777344 426.507812 1620.582031 419.738281 1624.105469 412.902344 C 1624.980469 411.1875 1627.09375 410.511719 1628.820312 411.394531 C 1630.535156 412.28125 1631.214844 414.390625 1630.324219 416.109375 C 1626.730469 423.09375 1622.84375 430.011719 1618.773438 436.667969 C 1618.117188 437.746094 1616.964844 438.34375 1615.78125 438.34375 Z M 954.964844 454.617188 C 954.496094 454.617188 954.015625 454.523438 953.5625 454.328125 C 946.054688 451.039062 939.050781 448.058594 932.152344 445.207031 C 930.367188 444.46875 929.519531 442.421875 930.257812 440.636719 C 930.996094 438.847656 933.046875 438 934.828125 438.738281 C 941.769531 441.609375 948.816406 444.609375 956.371094 447.910156 C 958.136719 448.683594 958.949219 450.746094 958.175781 452.515625 C 957.601562 453.835938 956.308594 454.617188 954.964844 454.617188 Z M 483.445312 457.695312 C 482.222656 457.695312 481.035156 457.050781 480.390625 455.90625 C 479.441406 454.222656 480.039062 452.089844 481.726562 451.140625 C 488.542969 447.3125 495.53125 443.613281 502.5 440.132812 C 504.234375 439.273438 506.335938 439.980469 507.195312 441.707031 C 508.058594 443.4375 507.355469 445.539062 505.625 446.402344 C 498.757812 449.824219 491.871094 453.472656 485.160156 457.242188 C 484.617188 457.546875 484.027344 457.695312 483.445312 457.695312 Z M 1008.070312 478.796875 C 1007.574219 478.796875 1007.066406 478.691406 1006.589844 478.46875 C 999.546875 475.175781 992.496094 471.898438 985.429688 468.65625 C 983.675781 467.84375 982.90625 465.765625 983.71875 464.011719 C 984.523438 462.25 986.601562 461.484375 988.359375 462.292969 C 995.433594 465.546875 1002.496094 468.828125 1009.550781 472.125 C 1011.300781 472.9375 1012.0625 475.023438 1011.242188 476.777344 C 1010.648438 478.046875 1009.386719 478.796875 1008.070312 478.796875 Z M 1580.878906 484.960938 C 1580.039062 484.960938 1579.199219 484.660156 1578.519531 484.054688 C 1577.097656 482.75 1576.992188 480.535156 1578.285156 479.109375 C 1583.425781 473.464844 1588.417969 467.53125 1593.132812 461.472656 C 1594.324219 459.945312 1596.527344 459.671875 1598.042969 460.855469 C 1599.574219 462.046875 1599.855469 464.242188 1598.664062 465.769531 C 1593.84375 471.96875 1588.730469 478.042969 1583.46875 483.816406 C 1582.78125 484.578125 1581.832031 484.960938 1580.878906 484.960938 Z M 434.460938 489.328125 C 433.386719 489.328125 432.328125 488.835938 431.640625 487.902344 C 430.492188 486.347656 430.828125 484.15625 432.382812 483.007812 C 438.675781 478.378906 445.15625 473.847656 451.648438 469.539062 C 453.261719 468.472656 455.4375 468.910156 456.503906 470.519531 C 457.570312 472.132812 457.132812 474.300781 455.523438 475.371094 C 449.121094 479.617188 442.734375 484.082031 436.535156 488.644531 C 435.910156 489.105469 435.183594 489.328125 434.460938 489.328125 Z M 1061.007812 503.347656 C 1060.523438 503.347656 1060.03125 503.246094 1059.5625 503.035156 C 1053.140625 500.121094 1046.394531 497.019531 1038.320312 493.273438 C 1036.570312 492.457031 1035.808594 490.378906 1036.621094 488.625 C 1037.4375 486.875 1039.519531 486.109375 1041.269531 486.925781 C 1049.328125 490.664062 1056.054688 493.753906 1062.457031 496.660156 C 1064.214844 497.457031 1064.996094 499.53125 1064.195312 501.289062 C 1063.609375 502.585938 1062.335938 503.347656 1061.007812 503.347656 Z M 1537.671875 523.988281 C 1536.601562 523.988281 1535.539062 523.496094 1534.851562 522.566406 C 1533.707031 521.011719 1534.035156 518.820312 1535.597656 517.671875 C 1541.75 513.136719 1547.792969 508.285156 1553.582031 503.257812 C 1555.042969 501.992188 1557.246094 502.148438 1558.519531 503.609375 C 1559.792969 505.070312 1559.628906 507.28125 1558.167969 508.546875 C 1552.25 513.691406 1546.050781 518.65625 1539.75 523.304688 C 1539.121094 523.761719 1538.398438 523.988281 1537.671875 523.988281 Z M 1114.574219 526.457031 C 1114.136719 526.457031 1113.691406 526.375 1113.253906 526.199219 C 1106.296875 523.359375 1099.035156 520.328125 1091.667969 517.1875 C 1089.890625 516.429688 1089.0625 514.375 1089.820312 512.597656 C 1090.578125 510.820312 1092.632812 509.992188 1094.414062 510.753906 C 1101.746094 513.875 1108.976562 516.890625 1115.902344 519.714844 C 1117.691406 520.445312 1118.550781 522.488281 1117.820312 524.277344 C 1117.265625 525.636719 1115.957031 526.457031 1114.574219 526.457031 Z M 389.679688 526.675781 C 388.75 526.675781 387.824219 526.308594 387.136719 525.578125 C 385.804688 524.171875 385.875 521.953125 387.277344 520.632812 C 392.949219 515.28125 398.835938 510 404.769531 504.925781 C 406.238281 503.667969 408.449219 503.84375 409.707031 505.308594 C 410.960938 506.777344 410.789062 508.988281 409.320312 510.246094 C 403.472656 515.246094 397.671875 520.453125 392.082031 525.722656 C 391.410156 526.363281 390.542969 526.675781 389.679688 526.675781 Z M 1169.136719 547.144531 C 1168.761719 547.144531 1168.363281 547.078125 1167.992188 546.949219 C 1160.824219 544.457031 1153.402344 541.789062 1145.957031 539 C 1144.144531 538.324219 1143.222656 536.304688 1143.902344 534.496094 C 1144.582031 532.6875 1146.601562 531.765625 1148.410156 532.445312 C 1155.808594 535.210938 1163.171875 537.867188 1170.277344 540.335938 C 1172.113281 540.96875 1173.078125 542.964844 1172.449219 544.792969 C 1171.949219 546.234375 1170.585938 547.144531 1169.136719 547.144531 Z M 1487.59375 553.722656 C 1486.277344 553.722656 1485.019531 552.976562 1484.421875 551.707031 C 1483.605469 549.949219 1484.363281 547.867188 1486.113281 547.050781 C 1493.0625 543.816406 1499.953125 540.261719 1506.597656 536.488281 C 1508.289062 535.535156 1510.425781 536.128906 1511.367188 537.804688 C 1512.324219 539.488281 1511.742188 541.625 1510.058594 542.578125 C 1503.246094 546.441406 1496.1875 550.082031 1489.066406 553.394531 C 1488.589844 553.621094 1488.085938 553.722656 1487.59375 553.722656 Z M 1224.90625 564.273438 C 1224.613281 564.273438 1224.3125 564.234375 1224.007812 564.15625 C 1216.632812 562.207031 1209.039062 560.0625 1201.4375 557.785156 C 1199.582031 557.230469 1198.535156 555.277344 1199.09375 553.429688 C 1199.640625 551.578125 1201.59375 550.53125 1203.449219 551.082031 C 1210.976562 553.335938 1218.488281 555.457031 1225.808594 557.386719 C 1227.671875 557.878906 1228.78125 559.792969 1228.292969 561.664062 C 1227.882812 563.234375 1226.460938 564.273438 1224.90625 564.273438 Z M 349.777344 569.191406 C 348.988281 569.191406 348.203125 568.929688 347.542969 568.386719 C 346.058594 567.15625 345.851562 564.949219 347.085938 563.457031 C 352.058594 557.464844 357.253906 551.5 362.53125 545.738281 C 363.835938 544.3125 366.054688 544.21875 367.476562 545.519531 C 368.902344 546.824219 369.003906 549.039062 367.695312 550.464844 C 362.496094 556.144531 357.375 562.019531 352.476562 567.925781 C 351.785156 568.757812 350.785156 569.191406 349.777344 569.191406 Z M 1432.617188 573.035156 C 1431.042969 573.035156 1429.617188 571.964844 1429.21875 570.363281 C 1428.765625 568.484375 1429.910156 566.59375 1431.792969 566.132812 C 1439.246094 564.300781 1446.703125 562.164062 1453.953125 559.78125 C 1455.792969 559.175781 1457.765625 560.171875 1458.375 562.007812 C 1458.980469 563.847656 1457.976562 565.828125 1456.144531 566.429688 C 1448.722656 568.875 1441.089844 571.0625 1433.460938 572.929688 C 1433.175781 572.996094 1432.898438 573.035156 1432.617188 573.035156 Z M 1281.964844 576.425781 C 1281.777344 576.425781 1281.589844 576.40625 1281.417969 576.378906 C 1273.839844 575.175781 1266.058594 573.769531 1258.300781 572.191406 C 1256.394531 571.804688 1255.179688 569.953125 1255.570312 568.0625 C 1255.953125 566.164062 1257.808594 564.941406 1259.683594 565.328125 C 1267.367188 566.890625 1275.035156 568.28125 1282.5 569.464844 C 1284.417969 569.765625 1285.726562 571.5625 1285.417969 573.472656 C 1285.140625 575.195312 1283.65625 576.425781 1281.964844 576.425781 Z M 1374.988281 581.550781 C 1373.148438 581.550781 1371.605469 580.117188 1371.503906 578.257812 C 1371.382812 576.324219 1372.863281 574.671875 1374.789062 574.5625 C 1376.492188 574.460938 1378.183594 574.351562 1379.890625 574.234375 C 1385.867188 573.808594 1391.890625 573.207031 1397.78125 572.449219 C 1399.707031 572.210938 1401.457031 573.5625 1401.703125 575.476562 C 1401.949219 577.394531 1400.597656 579.148438 1398.667969 579.394531 C 1392.644531 580.171875 1386.496094 580.78125 1380.390625 581.214844 C 1378.65625 581.335938 1376.925781 581.445312 1375.199219 581.546875 C 1375.128906 581.550781 1375.058594 581.550781 1374.988281 581.550781 Z M 1340 582.007812 C 1339.964844 582.007812 1339.933594 582.007812 1339.894531 582.003906 C 1332.183594 581.773438 1324.28125 581.316406 1316.40625 580.652344 C 1314.476562 580.488281 1313.054688 578.792969 1313.21875 576.871094 C 1313.382812 574.945312 1315.074219 573.515625 1316.996094 573.675781 C 1324.746094 574.332031 1332.519531 574.78125 1340.105469 575.007812 C 1342.035156 575.066406 1343.5625 576.679688 1343.503906 578.613281 C 1343.441406 580.507812 1341.878906 582.007812 1340 582.007812 Z M 315.433594 616.308594 C 314.789062 616.308594 314.136719 616.128906 313.558594 615.761719 C 311.925781 614.722656 311.445312 612.554688 312.484375 610.925781 C 316.664062 604.355469 321.082031 597.792969 325.609375 591.417969 C 326.730469 589.847656 328.914062 589.472656 330.492188 590.59375 C 332.066406 591.710938 332.4375 593.898438 331.320312 595.476562 C 326.855469 601.75 322.507812 608.21875 318.390625 614.683594 C 317.726562 615.734375 316.589844 616.308594 315.433594 616.308594 " fill-opacity="1" fill-rule="nonzero"/></g><g transform="matrix(1, 0, 0, 1, 99, 55)"><g clip-path="url(#b581cf0f38)"><g fill="#ffffff" fill-opacity="1"><g transform="translate(37.765612, 566.64136)"><g><path d="M -9.0625 2.828125 C -16.25 2.828125 -19.84375 0.5625 -19.84375 -3.96875 C -19.84375 -6.613281 -18.234375 -8.972656 -15.015625 -11.046875 C -11.804688 -13.128906 -7.554688 -14.738281 -2.265625 -15.875 C 11.710938 -19.644531 22.382812 -23.984375 29.75 -28.890625 C 37.125 -33.804688 42.890625 -42.5 47.046875 -54.96875 L 126.390625 -311.71875 C 130.546875 -324.9375 130.734375 -334.09375 126.953125 -339.1875 C 123.171875 -344.289062 115.425781 -348.164062 103.71875 -350.8125 C 99.1875 -351.945312 96.066406 -353.269531 94.359375 -354.78125 C 92.660156 -356.289062 91.8125 -357.992188 91.8125 -359.890625 C 91.8125 -362.910156 93.507812 -365.363281 96.90625 -367.25 C 100.3125 -369.144531 104.09375 -370.09375 108.25 -370.09375 C 118.070312 -370.09375 126.191406 -369.804688 132.609375 -369.234375 C 139.035156 -368.671875 145.082031 -368.007812 150.75 -367.25 C 156.414062 -366.5 163.21875 -366.125 171.15625 -366.125 C 178.71875 -366.125 186.179688 -366.59375 193.546875 -367.53125 C 200.910156 -368.476562 208.65625 -369.234375 216.78125 -369.796875 C 224.90625 -370.367188 233.691406 -370.65625 243.140625 -370.65625 C 267.691406 -370.65625 287.804688 -367.628906 303.484375 -361.578125 C 319.171875 -355.535156 330.882812 -347.035156 338.625 -336.078125 C 346.375 -325.117188 350.25 -312.460938 350.25 -298.109375 C 350.25 -285.640625 347.222656 -274.300781 341.171875 -264.09375 C 335.128906 -253.894531 327.195312 -244.921875 317.375 -237.171875 C 307.550781 -229.429688 296.5 -223.007812 284.21875 -217.90625 C 271.945312 -212.8125 259.578125 -208.941406 247.109375 -206.296875 C 244.835938 -205.921875 243.609375 -205.070312 243.421875 -203.75 C 243.234375 -202.425781 243.894531 -201.382812 245.40625 -200.625 C 267.320312 -193.070312 284.984375 -182.398438 298.390625 -168.609375 C 311.804688 -154.816406 318.515625 -135.453125 318.515625 -110.515625 C 318.515625 -91.242188 314.070312 -74.523438 305.1875 -60.359375 C 296.3125 -46.191406 283.84375 -34.476562 267.78125 -25.21875 C 251.726562 -15.957031 233.21875 -9.0625 212.25 -4.53125 C 191.28125 0 168.894531 2.265625 145.09375 2.265625 C 129.976562 2.265625 116.46875 1.789062 104.5625 0.84375 C 92.664062 -0.09375 80.289062 -0.5625 67.4375 -0.5625 C 59.125 -0.5625 50.8125 -0.28125 42.5 0.28125 C 34.1875 0.851562 25.6875 1.421875 17 1.984375 C 8.3125 2.546875 -0.375 2.828125 -9.0625 2.828125 Z M 148.484375 -14.734375 C 160.203125 -15.867188 171.820312 -19.550781 183.34375 -25.78125 C 194.863281 -32.019531 205.253906 -40.332031 214.515625 -50.71875 C 223.773438 -61.113281 231.144531 -72.546875 236.625 -85.015625 C 242.101562 -97.484375 244.84375 -110.519531 244.84375 -124.125 C 244.84375 -144.144531 239.171875 -160.195312 227.828125 -172.28125 C 216.492188 -184.375 199.867188 -190.421875 177.953125 -190.421875 C 171.535156 -190.421875 166.71875 -189.476562 163.5 -187.59375 C 160.289062 -185.707031 157.929688 -182.492188 156.421875 -177.953125 L 120.15625 -58.375 C 118.644531 -53.082031 117.984375 -47.601562 118.171875 -41.9375 C 118.359375 -36.269531 119.960938 -31.738281 122.984375 -28.34375 C 125.628906 -24.9375 129.03125 -21.816406 133.1875 -18.984375 C 137.34375 -16.148438 142.441406 -14.734375 148.484375 -14.734375 Z M 182.5 -207.4375 C 191.1875 -207.4375 199.210938 -208.378906 206.578125 -210.265625 C 213.941406 -212.148438 221.59375 -214.226562 229.53125 -216.5 C 244.644531 -225.5625 257.585938 -237.175781 268.359375 -251.34375 C 279.128906 -265.519531 284.515625 -282.429688 284.515625 -302.078125 C 284.515625 -315.679688 279.695312 -327.863281 270.0625 -338.625 C 260.425781 -349.394531 247.484375 -354.78125 231.234375 -354.78125 C 223.296875 -354.78125 217.34375 -353.644531 213.375 -351.375 C 209.414062 -349.113281 206.488281 -344.960938 204.59375 -338.921875 L 170.03125 -219.90625 C 167.757812 -211.59375 171.914062 -207.4375 182.5 -207.4375 Z M 182.5 -207.4375 "/></g></g></g><g fill="#ffffff" fill-opacity="1"><g transform="translate(382.857061, 566.64136)"><g><path d="M 175.6875 7.9375 C 153.394531 7.9375 133.65625 4.535156 116.46875 -2.265625 C 99.28125 -9.066406 85.394531 -18.984375 74.8125 -32.015625 C 64.226562 -45.054688 57.800781 -60.925781 55.53125 -79.625 C 53.269531 -98.332031 55.726562 -119.773438 62.90625 -143.953125 L 112.78125 -306.609375 C 116.5625 -317.941406 117.128906 -327.578125 114.484375 -335.515625 C 111.835938 -343.453125 106.738281 -348.550781 99.1875 -350.8125 C 88.976562 -353.84375 84.253906 -358 85.015625 -363.28125 C 85.765625 -365.550781 88.125 -367.347656 92.09375 -368.671875 C 96.0625 -369.992188 100.3125 -370.65625 104.84375 -370.65625 C 115.050781 -370.65625 125.726562 -370.273438 136.875 -369.515625 C 148.019531 -368.765625 158.878906 -368.390625 169.453125 -368.390625 C 179.273438 -368.390625 190.328125 -368.671875 202.609375 -369.234375 C 214.890625 -369.804688 225.566406 -370.09375 234.640625 -370.09375 C 244.460938 -370.09375 248.617188 -367.632812 247.109375 -362.71875 C 246.347656 -358.9375 243.226562 -356.195312 237.75 -354.5 C 232.269531 -352.800781 226.128906 -350.628906 219.328125 -347.984375 C 212.910156 -345.710938 206.488281 -340.894531 200.0625 -333.53125 C 193.632812 -326.164062 188.15625 -315.492188 183.625 -301.515625 L 131.484375 -134.3125 C 124.679688 -111.644531 123.640625 -92.375 128.359375 -76.5 C 133.085938 -60.632812 141.78125 -48.546875 154.4375 -40.234375 C 167.09375 -31.921875 181.734375 -27.765625 198.359375 -27.765625 C 221.410156 -27.765625 241.625 -33.429688 259 -44.765625 C 276.382812 -56.109375 291.210938 -71.035156 303.484375 -89.546875 C 315.765625 -108.054688 325.117188 -128.082031 331.546875 -149.625 C 336.835938 -165.488281 341.75 -180.597656 346.28125 -194.953125 C 350.8125 -209.316406 354.875 -222.164062 358.46875 -233.5 C 362.0625 -244.832031 364.613281 -253.523438 366.125 -259.578125 C 372.539062 -282.242188 375.9375 -299.429688 376.3125 -311.140625 C 376.695312 -322.859375 375 -331.550781 371.21875 -337.21875 C 367.4375 -342.882812 362.148438 -347.226562 355.359375 -350.25 C 351.578125 -351.757812 347.414062 -353.363281 342.875 -355.0625 C 338.34375 -356.769531 336.457031 -359.132812 337.21875 -362.15625 C 337.59375 -365.175781 339.570312 -367.253906 343.15625 -368.390625 C 346.75 -369.523438 351.003906 -370.09375 355.921875 -370.09375 C 363.472656 -370.09375 370.460938 -369.992188 376.890625 -369.796875 C 383.316406 -369.609375 389.457031 -369.421875 395.3125 -369.234375 C 401.164062 -369.046875 407.113281 -368.953125 413.15625 -368.953125 C 419.582031 -368.953125 425.25 -369.046875 430.15625 -369.234375 C 435.070312 -369.421875 439.796875 -369.703125 444.328125 -370.078125 C 448.867188 -370.460938 454.160156 -370.65625 460.203125 -370.65625 C 464.734375 -370.65625 468.128906 -370.179688 470.390625 -369.234375 C 472.660156 -368.296875 473.421875 -366.3125 472.671875 -363.28125 C 471.535156 -358.375 464.921875 -354.410156 452.828125 -351.390625 C 444.898438 -349.492188 438.289062 -346.75 433 -343.15625 C 427.707031 -339.570312 422.890625 -334.191406 418.546875 -327.015625 C 414.203125 -319.835938 409.382812 -309.257812 404.09375 -295.28125 C 395.40625 -270.71875 387.1875 -246.15625 379.4375 -221.59375 C 371.695312 -197.039062 363.289062 -171.539062 354.21875 -145.09375 C 344.394531 -114.863281 331.832031 -88.222656 316.53125 -65.171875 C 301.226562 -42.128906 282.238281 -24.179688 259.5625 -11.328125 C 236.894531 1.515625 208.9375 7.9375 175.6875 7.9375 Z M 175.6875 7.9375 "/></g></g></g><g fill="#ffffff" fill-opacity="1"><g transform="translate(784.047355, 566.64136)"><g><path d="M 285.078125 2.265625 C 277.898438 2.265625 267.976562 2.171875 255.3125 1.984375 C 242.65625 1.796875 228.203125 1.507812 211.953125 1.125 C 195.710938 0.75 178.898438 0.46875 161.515625 0.28125 C 144.140625 0.09375 126.953125 0 109.953125 0 C 94.835938 0 79.910156 0.09375 65.171875 0.28125 C 50.441406 0.46875 36.460938 0.84375 23.234375 1.40625 C 10.015625 1.976562 -2.265625 2.453125 -13.609375 2.828125 C -16.242188 3.210938 -17.46875 1.328125 -17.28125 -2.828125 C -17.09375 -6.984375 -16.429688 -9.628906 -15.296875 -10.765625 C -12.273438 -14.921875 -8.210938 -20.113281 -3.109375 -26.34375 C 1.984375 -32.582031 7.550781 -39.101562 13.59375 -45.90625 C 19.644531 -52.707031 25.503906 -58.941406 31.171875 -64.609375 C 53.085938 -88.035156 74.242188 -111.082031 94.640625 -133.75 C 115.046875 -156.425781 135.164062 -178.910156 155 -201.203125 C 174.84375 -223.492188 195.054688 -245.972656 215.640625 -268.640625 C 236.234375 -291.304688 257.675781 -314.539062 279.96875 -338.34375 C 281.863281 -340.613281 283.09375 -342.878906 283.65625 -345.140625 C 284.226562 -347.410156 281.488281 -348.738281 275.4375 -349.125 C 270.90625 -349.125 264.484375 -349.023438 256.171875 -348.828125 C 247.859375 -348.640625 238.789062 -348.359375 228.96875 -347.984375 C 219.144531 -347.609375 209.789062 -347.132812 200.90625 -346.5625 C 192.03125 -346 184.570312 -345.53125 178.53125 -345.15625 C 166.4375 -343.257812 153.398438 -338.628906 139.421875 -331.265625 C 125.441406 -323.898438 112.59375 -311.90625 100.875 -295.28125 C 97.476562 -290.738281 94.269531 -286.671875 91.25 -283.078125 C 88.226562 -279.492188 84.445312 -277.703125 79.90625 -277.703125 C 76.882812 -277.703125 74.992188 -278.835938 74.234375 -281.109375 C 73.484375 -283.378906 73.296875 -285.832031 73.671875 -288.46875 C 74.054688 -289.988281 74.625 -292.066406 75.375 -294.703125 C 76.132812 -297.347656 77.269531 -300.1875 78.78125 -303.21875 C 84.070312 -313.039062 88.796875 -322.957031 92.953125 -332.96875 C 97.109375 -342.976562 100.882812 -351.953125 104.28125 -359.890625 C 106.550781 -365.179688 109.003906 -369.050781 111.640625 -371.5 C 114.285156 -373.957031 117.6875 -375.1875 121.84375 -375.1875 C 130.539062 -375.1875 141.023438 -373.957031 153.296875 -371.5 C 165.578125 -369.050781 179.085938 -367.828125 193.828125 -367.828125 C 205.921875 -367.441406 218.203125 -367.25 230.671875 -367.25 C 243.140625 -367.25 255.039062 -367.25 266.375 -367.25 C 278.84375 -367.25 291.875 -367.4375 305.46875 -367.8125 C 319.070312 -368.195312 332.484375 -368.578125 345.703125 -368.953125 C 358.929688 -369.328125 370.648438 -369.515625 380.859375 -369.515625 C 383.503906 -369.515625 385.582031 -367.625 387.09375 -363.84375 C 388.601562 -360.070312 388.789062 -357.617188 387.65625 -356.484375 L 336.65625 -300.9375 C 315.488281 -278.644531 294.988281 -256.828125 275.15625 -235.484375 C 255.320312 -214.140625 235.769531 -192.789062 216.5 -171.4375 C 197.226562 -150.09375 177.863281 -128.460938 158.40625 -106.546875 C 138.945312 -84.628906 119.015625 -61.957031 98.609375 -38.53125 C 89.921875 -28.707031 91.054688 -23.609375 102.015625 -23.234375 C 108.816406 -22.859375 118.164062 -22.578125 130.0625 -22.390625 C 141.96875 -22.203125 153.96875 -22.109375 166.0625 -22.109375 C 176.257812 -22.484375 186.742188 -23.046875 197.515625 -23.796875 C 208.285156 -24.554688 218.675781 -25.785156 228.6875 -27.484375 C 238.695312 -29.179688 247.671875 -31.351562 255.609375 -34 C 269.960938 -38.15625 283.375 -44.578125 295.84375 -53.265625 C 308.3125 -61.960938 319.457031 -73.867188 329.28125 -88.984375 C 331.164062 -91.628906 333.050781 -93.707031 334.9375 -95.21875 C 336.832031 -96.726562 339.101562 -97.484375 341.75 -97.484375 C 344.394531 -97.484375 346.09375 -96.535156 346.84375 -94.640625 C 347.601562 -92.753906 347.796875 -90.488281 347.421875 -87.84375 C 346.660156 -84.0625 344.484375 -78.769531 340.890625 -71.96875 C 337.304688 -65.175781 333.242188 -57.8125 328.703125 -49.875 C 324.171875 -41.9375 319.640625 -34.285156 315.109375 -26.921875 C 310.578125 -19.554688 306.800781 -13.226562 303.78125 -7.9375 C 301.882812 -4.914062 299.425781 -2.457031 296.40625 -0.5625 C 293.382812 1.320312 289.609375 2.265625 285.078125 2.265625 Z M 285.078125 2.265625 "/></g></g></g><g fill="#ffffff" fill-opacity="1"><g transform="translate(1146.138524, 566.64136)"><g><path d="M 285.078125 2.265625 C 277.898438 2.265625 267.976562 2.171875 255.3125 1.984375 C 242.65625 1.796875 228.203125 1.507812 211.953125 1.125 C 195.710938 0.75 178.898438 0.46875 161.515625 0.28125 C 144.140625 0.09375 126.953125 0 109.953125 0 C 94.835938 0 79.910156 0.09375 65.171875 0.28125 C 50.441406 0.46875 36.460938 0.84375 23.234375 1.40625 C 10.015625 1.976562 -2.265625 2.453125 -13.609375 2.828125 C -16.242188 3.210938 -17.46875 1.328125 -17.28125 -2.828125 C -17.09375 -6.984375 -16.429688 -9.628906 -15.296875 -10.765625 C -12.273438 -14.921875 -8.210938 -20.113281 -3.109375 -26.34375 C 1.984375 -32.582031 7.550781 -39.101562 13.59375 -45.90625 C 19.644531 -52.707031 25.503906 -58.941406 31.171875 -64.609375 C 53.085938 -88.035156 74.242188 -111.082031 94.640625 -133.75 C 115.046875 -156.425781 135.164062 -178.910156 155 -201.203125 C 174.84375 -223.492188 195.054688 -245.972656 215.640625 -268.640625 C 236.234375 -291.304688 257.675781 -314.539062 279.96875 -338.34375 C 281.863281 -340.613281 283.09375 -342.878906 283.65625 -345.140625 C 284.226562 -347.410156 281.488281 -348.738281 275.4375 -349.125 C 270.90625 -349.125 264.484375 -349.023438 256.171875 -348.828125 C 247.859375 -348.640625 238.789062 -348.359375 228.96875 -347.984375 C 219.144531 -347.609375 209.789062 -347.132812 200.90625 -346.5625 C 192.03125 -346 184.570312 -345.53125 178.53125 -345.15625 C 166.4375 -343.257812 153.398438 -338.628906 139.421875 -331.265625 C 125.441406 -323.898438 112.59375 -311.90625 100.875 -295.28125 C 97.476562 -290.738281 94.269531 -286.671875 91.25 -283.078125 C 88.226562 -279.492188 84.445312 -277.703125 79.90625 -277.703125 C 76.882812 -277.703125 74.992188 -278.835938 74.234375 -281.109375 C 73.484375 -283.378906 73.296875 -285.832031 73.671875 -288.46875 C 74.054688 -289.988281 74.625 -292.066406 75.375 -294.703125 C 76.132812 -297.347656 77.269531 -300.1875 78.78125 -303.21875 C 84.070312 -313.039062 88.796875 -322.957031 92.953125 -332.96875 C 97.109375 -342.976562 100.882812 -351.953125 104.28125 -359.890625 C 106.550781 -365.179688 109.003906 -369.050781 111.640625 -371.5 C 114.285156 -373.957031 117.6875 -375.1875 121.84375 -375.1875 C 130.539062 -375.1875 141.023438 -373.957031 153.296875 -371.5 C 165.578125 -369.050781 179.085938 -367.828125 193.828125 -367.828125 C 205.921875 -367.441406 218.203125 -367.25 230.671875 -367.25 C 243.140625 -367.25 255.039062 -367.25 266.375 -367.25 C 278.84375 -367.25 291.875 -367.4375 305.46875 -367.8125 C 319.070312 -368.195312 332.484375 -368.578125 345.703125 -368.953125 C 358.929688 -369.328125 370.648438 -369.515625 380.859375 -369.515625 C 383.503906 -369.515625 385.582031 -367.625 387.09375 -363.84375 C 388.601562 -360.070312 388.789062 -357.617188 387.65625 -356.484375 L 336.65625 -300.9375 C 315.488281 -278.644531 294.988281 -256.828125 275.15625 -235.484375 C 255.320312 -214.140625 235.769531 -192.789062 216.5 -171.4375 C 197.226562 -150.09375 177.863281 -128.460938 158.40625 -106.546875 C 138.945312 -84.628906 119.015625 -61.957031 98.609375 -38.53125 C 89.921875 -28.707031 91.054688 -23.609375 102.015625 -23.234375 C 108.816406 -22.859375 118.164062 -22.578125 130.0625 -22.390625 C 141.96875 -22.203125 153.96875 -22.109375 166.0625 -22.109375 C 176.257812 -22.484375 186.742188 -23.046875 197.515625 -23.796875 C 208.285156 -24.554688 218.675781 -25.785156 228.6875 -27.484375 C 238.695312 -29.179688 247.671875 -31.351562 255.609375 -34 C 269.960938 -38.15625 283.375 -44.578125 295.84375 -53.265625 C 308.3125 -61.960938 319.457031 -73.867188 329.28125 -88.984375 C 331.164062 -91.628906 333.050781 -93.707031 334.9375 -95.21875 C 336.832031 -96.726562 339.101562 -97.484375 341.75 -97.484375 C 344.394531 -97.484375 346.09375 -96.535156 346.84375 -94.640625 C 347.601562 -92.753906 347.796875 -90.488281 347.421875 -87.84375 C 346.660156 -84.0625 344.484375 -78.769531 340.890625 -71.96875 C 337.304688 -65.175781 333.242188 -57.8125 328.703125 -49.875 C 324.171875 -41.9375 319.640625 -34.285156 315.109375 -26.921875 C 310.578125 -19.554688 306.800781 -13.226562 303.78125 -7.9375 C 301.882812 -4.914062 299.425781 -2.457031 296.40625 -0.5625 C 293.382812 1.320312 289.609375 2.265625 285.078125 2.265625 Z M 285.078125 2.265625 "/></g></g></g><g fill="#ffffff" fill-opacity="1"><g transform="translate(1508.346355, 566.64136)"><g/></g></g></g></g></svg>